HIERARCHY
ROOT Hips
{
	OFFSET 0.00 0.00 0.00
	CHANNELS 6 Xposition Yposition Zposition Yrotation Xrotation Zrotation
	JOINT LHipJoint
	{
		OFFSET	0.0000	0.0000	0.0000
		CHANNELS 3 Yrotation Xrotation Zrotation
		JOINT LeftUpLeg
		{
			OFFSET	1.0138	-0.0809	-0.0827
			CHANNELS 3 Yrotation Xrotation Zrotation
			JOINT LeftLeg
			{
				OFFSET	0.4110	-3.9095	0.3245
				CHANNELS 3 Yrotation Xrotation Zrotation
				JOINT LeftFoot
				{
					OFFSET	0.3810	-4.0555	-0.1470
					CHANNELS 3 Yrotation Xrotation Zrotation
					JOINT LeftToeBase
					{
						OFFSET	0.1396	-0.4462	1.3079
						CHANNELS 3 Yrotation Xrotation Zrotation
						End Site
						{
							OFFSET 0.0161 -0.0248 0.1809
						}
					}
				}
			}
		}
	}
	JOINT LowerBack
	{
		OFFSET	0.0000	0.7977	-0.3873
		CHANNELS 3 Yrotation Xrotation Zrotation
		JOINT Spine
		{
			OFFSET	0.0000	1.4131	0.1715
			CHANNELS 3 Yrotation Xrotation Zrotation
			JOINT Spine1
			{
				OFFSET	0.0000	1.4392	-0.1032
				CHANNELS 3 Yrotation Xrotation Zrotation
				JOINT LeftShoulder
				{
					OFFSET	0.2274	1.0382	0.4032
					CHANNELS 3 Yrotation Xrotation Zrotation
					JOINT LeftArm
					{
						OFFSET	1.4730	-0.2267	-0.0231
						CHANNELS 3 Yrotation Xrotation Zrotation
						JOINT LeftForeArm
						{
							OFFSET	1.6131	-1.8059	0.0081
							CHANNELS 3 Yrotation Xrotation Zrotation
							JOINT LeftHand
							{
								OFFSET	1.2197	-1.2423	1.6317
								CHANNELS 3 Yrotation Xrotation Zrotation
								JOINT LThumb
								{
									OFFSET	0.0109	-0.0753	0.4387
									CHANNELS 3 Yrotation Xrotation Zrotation
									End Site
									{
										OFFSET -0.2090 -0.0868 0.2097
									}
								}
								JOINT LeftFingerBase
								{
									OFFSET	0.1071	-0.1567	0.2607
									CHANNELS 3 Yrotation Xrotation Zrotation
									JOINT LeftHandFinger1
									{
										OFFSET	0.1706	-0.2492	0.6830
										CHANNELS 3 Yrotation Xrotation Zrotation
										End Site
										{
											OFFSET 0.0335 -0.1507 0.2071
										}
									}
								}
							}
						}
					}
				}
				JOINT Neck
				{
					OFFSET	0.0000	1.7498	0.2381
					CHANNELS 3 Yrotation Xrotation Zrotation
					JOINT Neck1
					{
						OFFSET	0.0000	0.5043	0.1959
						CHANNELS 3 Yrotation Xrotation Zrotation
						JOINT Head
						{
							OFFSET	0.0000	0.5044	0.1959
							CHANNELS 3 Yrotation Xrotation Zrotation
							End Site
							{
								OFFSET 0.0000 1.4798 -0.0693
							}
						}
					}
				}
				JOINT RightShoulder
				{
					OFFSET	-0.2274	1.0382	0.4032
					CHANNELS 3 Yrotation Xrotation Zrotation
					JOINT RightArm
					{
						OFFSET	-1.4730	-0.2267	-0.0231
						CHANNELS 3 Yrotation Xrotation Zrotation
						JOINT RightForeArm
						{
							OFFSET	-1.6131	-1.8059	0.0081
							CHANNELS 3 Yrotation Xrotation Zrotation
							JOINT RightHand
							{
								OFFSET	-1.2197	-1.2423	1.6317
								CHANNELS 3 Yrotation Xrotation Zrotation
								JOINT RThumb
								{
									OFFSET	-0.0109	-0.0753	0.4387
									CHANNELS 3 Yrotation Xrotation Zrotation
									End Site
									{
										OFFSET 0.2090 -0.0868 0.2097
									}
								}
								JOINT RightFingerBase
								{
									OFFSET	-0.1071	-0.1567	0.2607
									CHANNELS 3 Yrotation Xrotation Zrotation
									JOINT RightHandFinger1
									{
										OFFSET	-0.1706	-0.2492	0.6830
										CHANNELS 3 Yrotation Xrotation Zrotation
										End Site
										{
											OFFSET -0.0335 -0.1507 0.2071
										}
									}
								}
							}
						}
					}
				}
			}
		}
	}
	JOINT RHipJoint
	{
		OFFSET	0.0000	0.0000	0.0000
		CHANNELS 3 Yrotation Xrotation Zrotation
		JOINT RightUpLeg
		{
			OFFSET	-1.0138	-0.0809	-0.0827
			CHANNELS 3 Yrotation Xrotation Zrotation
			JOINT RightLeg
			{
				OFFSET	-0.4110	-3.9095	0.3245
				CHANNELS 3 Yrotation Xrotation Zrotation
				JOINT RightFoot
				{
					OFFSET	-0.3810	-4.0555	-0.1470
					CHANNELS 3 Yrotation Xrotation Zrotation
					JOINT RightToeBase
					{
						OFFSET	-0.1396	-0.4462	1.3079
						CHANNELS 3 Yrotation Xrotation Zrotation
						End Site
						{
							OFFSET -0.0161 -0.0248 0.1809
						}
					}
				}
			}
		}
	}
}
MOTION
Frames: 12
Frame Time: 0.0333333
0.4095 8.4846 -0.4540 -4.1893 -7.1249 4.8906 0.0000 -0.0000 0.0000 7.5020 1.1390 -16.1301 9.2300 18.7333 3.8077 -1.4837 -13.7719 7.4792 0.0000 -0.4960 -0.0000 0.0000 -0.0000 0.0000 0.0742 4.8711 -2.0692 -0.1619 9.7394 -3.2554 -13.9544 0.1391 -4.9920 0.0759 0.1090 -22.2574 16.4562 18.9062 0.7126 27.9152 -8.9858 5.0505 42.2520 -0.6328 -4.9195 2.1590 20.5281 -5.3800 -12.0741 2.4050 -7.5023 1.1655 1.8080 -0.5929 1.1655 1.8080 -0.5929 1.2848 13.2018 0.6406 3.6957 2.7856 2.0412 31.5954 -10.7005 17.6354 36.5613 -33.1104 -9.1622 -47.5883 10.2312 81.2343 -9.1177 -9.6666 -8.8168 -7.0429 28.7693 0.8541 62.4525 20.7452 52.6384 0.0000 -0.0000 0.0000 2.3035 -15.3027 2.6753 -32.4678 60.9547 -29.7318 -9.2786 3.3900 -2.0038 -0.0000 -2.1989 -0.0000 
0.4006 8.5041 -0.4868 -2.6498 -7.2278 3.8127 0.0000 -0.0000 0.0000 7.7269 4.3826 -14.8120 7.0120 17.8033 3.3185 -1.8918 -15.5223 7.4562 0.0000 -0.1263 0.0000 0.0000 -0.0000 0.0000 -0.5132 5.0390 -1.8246 -1.2623 10.0732 -2.6709 -15.9834 0.1772 -3.8816 -1.6442 -3.1500 -20.5734 15.7949 18.2186 0.4881 27.7758 -9.7900 3.9119 42.2520 -0.6328 -4.9195 2.9499 19.8543 -4.6527 -11.3709 1.7735 -6.9113 1.1363 1.8115 -0.4557 1.1363 1.8115 -0.4557 0.9300 13.1033 1.0785 2.8493 2.9408 2.9937 32.4298 -10.9489 16.8776 36.0390 -32.7852 -8.8703 -47.1181 9.9980 80.7664 -9.4785 -8.0144 -9.7896 -7.0429 28.7693 0.8541 62.4525 20.7452 52.6384 0.0000 -0.0000 0.0000 2.0290 -18.2058 3.5902 -26.1501 56.2706 -23.1334 -10.2009 1.8662 -2.6853 0.0000 -2.6759 0.0000 
0.3900 8.5271 -0.5233 -1.4050 -6.8156 2.8356 0.0000 -0.0000 0.0000 8.0069 7.6912 -13.4240 4.6934 15.5733 2.6095 -1.9549 -16.5080 7.5435 -0.0000 -0.1950 -0.0000 0.0000 -0.0000 0.0000 -0.9791 5.0776 -1.5761 -2.0846 10.1527 -2.2248 -17.8999 0.2736 -2.6892 -3.1508 -6.2633 -18.8945 15.2465 17.6308 0.2995 27.4996 -10.6882 2.8976 42.2520 -0.6328 -4.9195 3.6292 19.2589 -4.0258 -10.7623 1.2162 -6.4017 1.1000 1.7648 -0.3072 1.1000 1.7648 -0.3072 0.5357 12.7588 1.6672 2.0005 3.1024 3.8616 33.1008 -11.1869 16.2953 35.4969 -32.4345 -8.5760 -46.5297 9.8017 80.5568 -9.8639 -6.5118 -10.6844 -7.0429 28.7693 0.8541 62.4525 20.7452 52.6384 0.0000 -0.0000 0.0000 1.5652 -20.8186 4.3687 -19.8040 48.5013 -16.6948 -10.6869 2.2543 -3.1183 0.0000 -2.7229 0.0000 
0.3796 8.5478 -0.5598 -0.6082 -6.1887 2.0397 0.0000 -0.0000 0.0000 8.4109 10.9761 -12.1895 2.8272 12.7678 2.1463 -1.9176 -16.5353 7.8592 0.0000 -0.9558 -0.0191 0.0000 -0.0000 0.0000 -1.3480 5.0700 -1.3438 -2.7179 10.1366 -1.9649 -19.3312 0.3737 -1.7918 -4.3042 -8.9244 -17.1626 14.5392 16.8761 0.0705 27.1711 -12.0433 2.1941 42.2520 -0.6328 -4.9195 4.1803 18.7647 -3.5162 -10.2656 0.7539 -5.9872 1.0715 1.6839 -0.1751 1.0715 1.6839 -0.1751 0.3354 12.2813 2.2834 1.3993 3.2351 4.6115 33.5871 -11.3916 15.8923 35.0130 -32.1161 -8.3166 -45.8852 9.6208 80.7299 -10.2163 -5.3921 -11.3870 -7.0429 28.7693 0.8541 62.4525 20.7452 52.6384 0.0000 -0.0000 0.0000 1.0991 -22.9965 4.8889 -15.1762 38.0443 -11.6145 -10.2781 3.7446 -2.8099 -0.0000 -2.7811 -0.0000 
0.3687 8.5536 -0.5908 -0.2348 -5.7674 1.4230 0.0000 -0.0000 0.0000 8.9645 14.2525 -11.1095 1.5955 10.3096 2.0352 -1.9489 -16.0942 8.2241 0.0002 -2.5049 -0.0481 0.0000 -0.0000 0.0000 -1.6534 5.1093 -1.1400 -3.2797 10.2050 -1.9393 -20.1724 0.4320 -1.3200 -4.9829 -10.7267 -15.4963 13.3320 15.5836 -0.2925 27.1171 -13.7088 1.4323 42.2520 -0.6328 -4.9195 4.5844 18.3962 -3.1422 -9.8999 0.4091 -5.6827 1.0561 1.5886 -0.0690 1.0561 1.5886 -0.0690 0.3447 11.8206 2.8376 1.0901 3.3230 5.1853 33.9409 -11.5536 15.6597 34.6426 -31.8745 -8.1159 -45.2041 9.4645 81.2731 -10.4899 -4.8509 -11.8161 -7.0429 28.7693 0.8541 62.4525 20.7452 52.6384 0.0000 -0.0000 0.0000 0.5480 -23.9688 5.1117 -12.7007 25.7938 -7.4743 -8.3789 5.4256 -1.0964 -0.0000 -3.1687 -0.0000 
0.3561 8.5333 -0.6131 -0.1692 -5.6742 0.8772 0.0000 -0.0000 0.0000 9.6622 17.0499 -10.0280 1.0487 9.4672 2.1640 -2.0711 -16.0227 8.4446 0.0003 -4.8833 -0.0777 0.0000 -0.0000 0.0000 -1.8967 5.1508 -0.8953 -3.7774 10.2640 -2.0780 -20.5703 0.4571 -1.1170 -5.1056 -11.4858 -14.2509 11.5444 13.6375 -0.7798 27.5326 -15.4368 0.2613 42.2521 -0.6328 -4.9195 4.8234 18.1765 -2.9204 -9.6831 0.2030 -5.5026 1.0502 1.5224 0.0057 1.0502 1.5224 0.0057 0.3937 11.5458 3.2420 0.9584 3.3561 5.4273 34.2206 -11.6497 15.6734 34.3558 -31.6875 -7.9600 -44.5547 9.3637 81.9605 -10.6807 -4.9527 -11.9630 -7.0429 28.7694 0.8541 62.4525 20.7452 52.6384 0.0000 -0.0000 0.0000 -0.1822 -23.2035 5.1830 -11.9986 13.6588 -3.2817 -5.0898 6.7668 1.6611 -0.0000 -3.7370 0.0000 
0.3410 8.4955 -0.6199 -0.2836 -5.7115 0.4563 0.0000 -0.0000 0.0000 10.3904 19.4939 -8.9602 0.8473 9.7679 2.3978 -1.9490 -16.3001 7.6920 0.0000 -8.1658 -0.0000 0.0000 -0.0000 0.0000 -2.0610 5.0518 -0.7140 -4.1157 10.0422 -2.2314 -20.7126 0.4820 -0.9473 -4.7268 -11.4717 -13.7717 9.5348 11.4136 -1.2513 28.0846 -17.0476 -1.1679 42.2520 -0.6328 -4.9195 4.8895 18.1171 -2.8580 -9.6236 0.1462 -5.4532 1.0442 1.5353 0.0606 1.0442 1.5353 0.0606 0.3243 11.5740 3.4474 0.8118 3.3528 5.3514 34.4540 -11.5866 15.9226 34.0396 -31.4698 -7.7964 -43.9625 9.3062 82.4826 -10.8200 -5.5939 -11.8866 -7.0429 28.7693 0.8541 62.4525 20.7452 52.6384 0.0000 -0.0000 0.0000 -0.9702 -20.8032 5.3830 -12.1026 3.8959 0.7586 -1.5009 7.8361 3.8606 -0.0000 -4.0018 0.0000 
0.3241 8.4405 -0.5884 -0.4547 -5.6970 0.2974 0.0000 -0.0000 0.0000 11.0806 22.5349 -8.1506 0.5058 9.3713 2.7758 -1.4719 -15.9767 6.6593 0.0000 -12.7717 -0.0000 0.0000 -0.0000 0.0000 -2.1515 4.7417 -0.8042 -4.2478 9.4249 -2.2545 -20.6142 0.5188 -0.7256 -4.1431 -11.0624 -14.0887 7.7840 9.4680 -1.5840 28.2606 -18.3896 -2.4447 42.2520 -0.6328 -4.9195 4.7898 18.2120 -2.9472 -9.7147 0.2332 -5.5289 1.0323 1.6381 0.1094 1.0323 1.6381 0.1094 0.1312 11.9107 3.4744 0.5107 3.3527 5.2020 34.6721 -11.2425 16.2434 33.6146 -31.1614 -7.5874 -43.3501 9.2119 82.5915 -10.9374 -6.5842 -11.6616 -7.0429 28.7693 0.8541 62.4525 20.7452 52.6384 0.0000 -0.0000 0.0000 -1.5874 -21.1588 5.7892 -11.9324 5.2368 2.0512 1.0061 5.3443 4.2292 0.0000 -3.5334 -0.0000 
0.3058 8.4056 -0.5335 -0.5206 -5.7356 0.0385 0.0000 -0.0000 0.0000 11.7924 26.5829 -7.2478 -0.3254 7.1684 3.3829 -0.6713 -13.3774 5.3857 -0.0000 -17.2829 -0.0000 0.0000 -0.0000 0.0000 -2.1926 4.3326 -0.8720 -4.2894 8.6238 -2.0147 -20.1538 0.5483 -0.5604 -3.6705 -10.2714 -15.0050 6.5306 8.0923 -1.7653 27.9101 -19.3478 -3.3364 42.2521 -0.6328 -4.9195 4.5408 18.4441 -3.1706 -9.9405 0.4476 -5.7165 1.0222 1.7942 0.1331 1.0222 1.7942 0.1331 -0.0681 12.4447 3.3513 0.0601 3.3748 5.1316 34.9379 -10.5738 16.5332 33.1789 -30.8334 -7.3813 -42.7157 9.0005 82.1735 -11.0446 -7.7337 -11.3487 -7.0429 28.7693 0.8541 62.4525 20.7452 52.6384 0.0000 -0.0000 0.0000 -1.6646 -19.7246 6.6421 -10.8931 7.4917 2.1431 1.4963 4.7159 1.1549 -0.0000 -2.2738 -0.0000 
0.2849 8.3896 -0.4754 -0.2713 -6.0469 -0.6887 0.0000 -0.0000 0.0000 12.5520 28.9430 -5.8536 -0.9957 8.2733 4.2475 -0.1319 -9.1900 4.0908 0.3475 -28.0792 -3.3855 0.0000 -0.0000 0.0000 -2.2741 4.0211 -0.6036 -4.4208 8.0137 -1.4064 -19.2535 0.5338 -0.6745 -3.4003 -8.9940 -16.3217 5.8758 7.3978 -1.8300 27.2288 -19.8356 -3.8160 42.2521 -0.6328 -4.9195 4.1587 18.7945 -3.5116 -10.2846 0.7717 -6.0030 1.0270 1.9398 0.0993 1.0270 1.9397 0.0993 -0.1983 12.9665 3.0859 -0.4394 3.4032 5.0410 35.2964 -9.7019 16.8186 32.9712 -30.6632 -7.2928 -42.2583 8.7191 81.3835 -11.1392 -8.8547 -11.0079 -7.0429 28.7693 0.8541 62.4525 20.7452 52.6384 0.0000 -0.0000 0.0000 -1.2359 -17.1658 8.0972 -9.6508 9.6319 1.5507 0.3257 5.8411 -4.5491 0.0000 -0.5803 -0.0000 
0.2603 8.3742 -0.4295 0.3541 -6.6213 -1.8939 0.0000 -0.0000 0.0000 12.9524 26.8309 -3.9295 -0.8235 17.4174 4.8655 -0.0228 -3.6501 1.4499 8.8836 -45.6682 -26.7893 0.0000 -0.0000 0.0000 -2.4335 3.9403 -0.0366 -4.6434 7.8635 -0.4342 -18.0695 0.4647 -1.2080 -3.1180 -7.4728 -17.9551 6.0326 7.6131 -1.7850 26.4169 -19.7825 -3.8754 42.2521 -0.6328 -4.9195 3.6572 19.2462 -3.9581 -10.7336 1.1897 -6.3777 1.0434 2.0076 0.0236 1.0434 2.0076 0.0236 -0.3317 13.2382 2.7463 -0.8839 3.4151 4.7997 35.6296 -8.9084 17.0759 33.1460 -30.7708 -7.3932 -42.1848 8.5703 80.6879 -11.2106 -9.7436 -10.7154 -7.0429 28.7693 0.8541 62.4525 20.7452 52.6384 0.0000 -0.0000 0.0000 -0.8105 -15.0414 9.6855 -9.3046 12.9209 0.7796 -1.0851 6.0334 -7.9529 0.0000 0.9943 -0.0000 
0.2353 8.3696 -0.4011 1.0652 -7.1986 -3.1916 0.0000 -0.0000 0.0000 12.4136 21.4722 -1.9094 1.9949 30.0977 6.6420 -0.1228 5.6153 -9.3105 -12.0273 -0.8995 -38.3930 0.0000 -0.0000 0.0000 -2.5108 4.0690 0.5085 -4.7297 8.1461 0.7021 -17.0272 0.3836 -1.9487 -2.4349 -6.0977 -19.9894 7.2062 8.9621 -1.5924 25.6457 -19.1621 -3.5559 42.2520 -0.6328 -4.9195 3.0498 19.7818 -4.5003 -11.2746 1.6860 -6.8305 1.0513 1.9701 -0.0312 1.0513 1.9702 -0.0312 -0.5991 13.1516 2.4835 -1.1710 3.4062 4.4518 35.6176 -8.4095 17.1764 33.7127 -31.1615 -7.6876 -42.5603 8.8057 80.5353 -11.2507 -10.2496 -10.5405 -7.0429 28.7693 0.8541 62.4525 20.7452 52.6384 0.0000 -0.0000 0.0000 -0.7711 -13.5502 11.0220 -9.8894 17.0691 0.4091 -1.3143 2.6191 -9.9431 -0.0067 0.3867 0.2343 
